<svg xmlns="http://www.w3.org/2000/svg" viewBox="0 0 144.6 114.17"><g id="Layer_2" data-name="Layer 2"><g id="Layer_1-2" data-name="Layer 1"><path d="M120.79,44.83a6.94,6.94,0,0,1-3-1c-2.07-1.16-3.77-2.18-5-3l-.31-.21v-.38h.71l.39-.59c1.25.84,2.92,1.85,4.95,3s2.44.86,2.44.86c.51-.65-1.39-5-5.34-10.81l1.16-.81c3.25,4.81,6.79,10.87,5.22,12.58A1.52,1.52,0,0,1,120.79,44.83Z" fill="#fff"/><path d="M125.82,40.79a3.9,3.9,0,0,1-2.13-1.09c-6.48-5.4-8-7-8-7l1-1c.07.07,1.51,1.58,7.93,6.94a4.28,4.28,0,0,0,1.07.71c.24-1.3-1.89-7-4.17-11.87l-.47-1h1.12c.23,0,2.43.15,8.45,5.17a3.69,3.69,0,0,0,1.24.79c.36-1-1.13-5.91-3.34-11l-.44-1h1.09c.12,0,3.22,0,10.28,3.06a6.27,6.27,0,0,0,1.13.39c-.53-1.36-3.84-5.16-6.92-8.24l-3.08-3.09,3.9,2c4,2,8.11,3.35,8.75,2.88h0s.12-.77-2.59-3.78c-7.19-8-24.83-13.87-31.36-11.81-1.48.46-2.26,1.25-2.41,2.43-.78,6.2-7.6,13.18-11.59,16.8l-1-1.06c3.1-2.8,10.38-10,11.13-15.92.15-1.21.87-2.81,3.4-3.61,7-2.21,25.2,3.74,32.83,12.23,2.63,2.91,3.42,4.59,2.65,5.6-.92,1.22-4.08.32-7-.91,5.58,6,4.84,7.09,4.58,7.48-.57.84-1.84.45-3-.05a40.51,40.51,0,0,0-8.59-2.8c2.07,4.87,3.94,10.42,2.4,11.58-1,.76-2.45-.44-3-.89a32.8,32.8,0,0,0-6.2-4.32c2.37,5.22,4.54,11,3.06,12.17A1.18,1.18,0,0,1,125.82,40.79Z" fill="#fff"/><path d="M11.07,95.38c-.51,0-1.8-.31-3.79-7.87-.55,3.15-1.48,6.29-3,6.42C3,94.06,2,92.47,1,88.69c-3.06-11,1.67-29.52,7.3-34.27,2-1.71,3.77-1.45,4.87-.93,3.81,1.8,9.84,1.19,14.22.35l.27,1.4c-4.59.87-10.94,1.5-15.1-.47a3,3,0,0,0-3.34.73C4,59.92-.56,78,2.33,88.31c1.1,3.93,1.82,4.2,1.85,4.21.69-.29,1.74-4.46,2.2-8.92l.44-4.34,1,4.26c1,4.25,2.39,9.07,3.25,10.24a6.22,6.22,0,0,0,.28-1.16c1.23-7.57,2.86-10.21,2.93-10.32l.58-.92.6.9c3.09,4.59,6.43,8.48,7.47,8.71a4,4,0,0,0,0-1.47c-1-7.78.05-9.71.18-9.91l.6-.94.59.94C27.11,84.1,30.81,89,32,89.48a4.43,4.43,0,0,0,0-1.29c-.32-2.53-.64-4.77-.92-6.65v-.11h.78l.63-.1c.29,1.9.6,4.15.93,6.69.15,1.14.19,2.49-.82,2.86-1.74.63-5.49-4.31-8.63-9.11a33.37,33.37,0,0,0,.33,7.56c.09.7.33,2.55-.86,3-1.8.68-5.48-3.88-8.49-8.24a40.85,40.85,0,0,0-2.24,8.75c-.2,1.25-.54,2.53-1.56,2.56Z" fill="#fff"/><path d="M87.44,111.88l-.17-1.4c17.89-2.27,31.24-18.32,32.45-39a56.91,56.91,0,0,0-7.19-30.95l-.09-.17a53,53,0,0,0-18-19.2,42.19,42.19,0,0,0-13.85-5.59A35.59,35.59,0,0,0,60.71,17l-.51-1.32a37,37,0,0,1,20.65-1.52,43.56,43.56,0,0,1,14.31,5.77A54.39,54.39,0,0,1,113.77,39.8l.08.17a58.11,58.11,0,0,1,7.28,31.55C119.88,92.93,106,109.53,87.44,111.88Z" fill="#fff"/><path d="M74.8,114.17a38.93,38.93,0,0,1-7.84-.8C43.18,108.49,25.11,82.75,26.67,56,27.47,42.27,33.44,30.17,43,22.8a36.22,36.22,0,0,1,29.81-6.65C96.63,21,114.7,46.77,113.14,73.53c-.81,13.72-6.77,25.82-16.37,33.19A35.75,35.75,0,0,1,74.8,114.17ZM65,16.76A34.41,34.41,0,0,0,43.9,23.92c-9.27,7.12-15,18.84-15.81,32.15-1.53,26.09,16,51.17,39.15,55.91a34.82,34.82,0,0,0,28.67-6.39c9.27-7.12,15-18.84,15.81-32.15,1.53-26.08-16-51.16-39.15-55.9A37.59,37.59,0,0,0,65,16.76Z" fill="#fff"/><path d="M76.65,49.4,66.06,55.63l-1-1.76a13.32,13.32,0,0,0-2.52-3.45,1.76,1.76,0,0,0-2.09.06,1.88,1.88,0,0,0-1,1.6,4.84,4.84,0,0,0,.83,2.52c1,1.66,2,2.63,3,2.9a44.08,44.08,0,0,0,8,.52,50.12,50.12,0,0,1,7.7.5,11.59,11.59,0,0,1,4.63,2.22,17.39,17.39,0,0,1,4.49,5.31q3.33,5.67,2.5,10.49t-5.84,8.79l2.34,4-4.87,2.87-2.42-4.11a14.74,14.74,0,0,1-9.34,1.09c-3.22-.65-6.23-3.33-9-8L60.25,79l10.59-6.23,1.53,2.6a28.68,28.68,0,0,0,3.44,5.11,1.71,1.71,0,0,0,2.2.1A2.12,2.12,0,0,0,79.18,79a4.12,4.12,0,0,0-.73-2.44A20.83,20.83,0,0,0,75,71.72q-1.41-1.25-5.37-1.34a85.89,85.89,0,0,1-9.22-.6A13.67,13.67,0,0,1,55,67.53a15.19,15.19,0,0,1-4.72-5.12q-2.79-4.74-1.7-9c.74-2.86,2.77-5.54,6.11-8.07l-2-3.38,4.87-2.87,2,3.38q5.28-2.25,9.27-1t6.76,5.92C75.84,47.78,76.2,48.47,76.65,49.4Z" fill="none" stroke="#fff" stroke-miterlimit="10" stroke-width="1.42"/></g></g></svg>