<svg xmlns="http://www.w3.org/2000/svg" viewBox="0 0 135.49 100.83"><g id="Layer_2" data-name="Layer 2"><g id="Layer_1-2" data-name="Layer 1"><path d="M115.13,52.73h-.07c-1.26-.08-1.58-1.92-1.69-2.61a32.9,32.9,0,0,0-1.92-7.33A59.75,59.75,0,0,1,108.07,52l-.62-.33h-.72v-.19l.09-.16c1.74-3.27,3.7-10.42,3.72-10.49l.29-1.08.85.73c.18.15,1.76,1.69,3.08,9.42a3.61,3.61,0,0,0,.43,1.4c.92-.52,3-5.22,4.57-10.51l.32-1,.82.7c.1.08,2.44,2.12,5.84,9a6.1,6.1,0,0,0,.61,1c.47-1.38.43-6.41.09-10.76l-.35-4.35,1.71,4c1.75,4.13,4,7.81,4.78,7.87,0,0,.59-.47.48-4.55C133.78,32,124.17,16,117.87,13.35c-1.42-.6-2.54-.51-3.41.29-4.91,4.5-15.72,5.18-20.14,5.27l0-1.42c3.32-.07,14.53-.61,19.22-4.9.89-.82,2.48-1.58,4.92-.54,6.78,2.89,16.75,19.2,17,30.61.11,3.92-.38,5.71-1.61,6-1.5.32-3.32-2.41-4.77-5.26.34,8.19-.92,8.54-1.38,8.66-1,.28-1.68-.85-2.24-2a39.74,39.74,0,0,0-4.71-7.7C119.18,47.35,117,52.73,115.13,52.73Z" fill="#fff"/><path d="M14.08,96.57c-.61,0-2-.66-4.95-7.09,0,3.2-.35,6.46-1.83,6.86-1.21.33-2.47-1-4.17-4.58-5-10.28-3.59-29.35,1.12-35,1.69-2,3.44-2.09,4.62-1.77a14.94,14.94,0,0,0,6.2.07l.23,1.4a16.42,16.42,0,0,1-6.8-.1c-1.14-.31-2.17.12-3.16,1.31C1,62.91-.27,81.46,4.4,91.15,6.17,94.82,6.93,95,7,95c.62-.4.92-4.69.59-9.17l-.33-4.35,1.69,4c1.68,4,3.95,8.51,5,9.51A5.67,5.67,0,0,0,14,93.78c-.12-7.67,1-10.55,1.07-10.67l.41-1,.75.78c3.85,4,7.83,7.2,8.89,7.25a3.72,3.72,0,0,0-.26-1.45c-2.37-7.47-1.67-9.56-1.58-9.77l.42-1,.76.82s2.4,2.62,4.87,4.91l-1,1c-1.45-1.35-2.87-2.8-3.81-3.78a32.92,32.92,0,0,0,1.66,7.38c.21.67.77,2.46-.32,3.11-1.72,1-6.56-3.35-9.81-6.61a40.45,40.45,0,0,0-.66,9c0,1.26-.09,2.58-1.08,2.78A.78.78,0,0,1,14.08,96.57Z" fill="#fff"/><path d="M74.47,98.54l-.17-1.41c17.89-2.26,31.24-18.32,32.45-39a54.85,54.85,0,0,0,0-6.41,57.6,57.6,0,0,0-13-33C86.66,10,77.37,4.19,67.59,2.19A35.49,35.49,0,0,0,47.74,3.65l-.51-1.33A37.13,37.13,0,0,1,67.88.8c10.09,2.07,19.67,8.09,27,17a58.9,58.9,0,0,1,13.3,33.85,53.52,53.52,0,0,1,0,6.58C106.91,79.59,93.06,96.18,74.47,98.54Z" fill="#fff"/><path d="M61.82,100.83A38.92,38.92,0,0,1,54,100C30.21,95.14,12.13,69.4,13.7,42.65c.8-13.73,6.77-25.82,16.37-33.19A36.21,36.21,0,0,1,59.88,2.81c23.78,4.88,41.85,30.61,40.28,57.37C99.36,73.9,93.4,86,83.8,93.37A35.77,35.77,0,0,1,61.82,100.83ZM52.05,3.42a34.41,34.41,0,0,0-21.12,7.16c-9.27,7.12-15,18.84-15.82,32.15-1.52,26.08,16,51.16,39.16,55.9a34.85,34.85,0,0,0,28.67-6.38c9.27-7.12,15-18.84,15.81-32.15C100.28,34,82.71,8.94,59.59,4.2A36.78,36.78,0,0,0,52.05,3.42Z" fill="#fff"/><path d="M65.6,37.35,54.53,41.61l-.71-1.84A12.88,12.88,0,0,0,52,36.08a1.71,1.71,0,0,0-2-.27,1.83,1.83,0,0,0-1.22,1.37,4.61,4.61,0,0,0,.39,2.53c.67,1.74,1.49,2.82,2.45,3.25a43.94,43.94,0,0,0,7.53,1.76,48.09,48.09,0,0,1,7.26,1.69,11.29,11.29,0,0,1,4.06,2.84A16.88,16.88,0,0,1,73.87,55q2.28,5.91.72,10.39t-7,7.45L69.25,77l-5.1,2-1.66-4.3a14.2,14.2,0,0,1-9.06-.43q-4.47-1.7-7.31-9.1L45.29,63l11.07-4.26,1,2.71a27.48,27.48,0,0,0,2.47,5.42,1.67,1.67,0,0,0,2.08.45,2.07,2.07,0,0,0,1.38-1.4A4,4,0,0,0,63,63.48a20.71,20.71,0,0,0-2.57-5.14q-1.14-1.4-4.91-2.12a86,86,0,0,1-8.69-2,13.31,13.31,0,0,1-4.77-3,14.77,14.77,0,0,1-3.69-5.63q-1.9-4.95-.18-8.86T45.31,30L44,26.45l5.1-2L50.41,28q5.37-1.3,9,.49t5.5,6.71C65.09,35.68,65.31,36.39,65.6,37.35Z" fill="none" stroke="#fff" stroke-miterlimit="10" stroke-width="1.42"/></g></g></svg>