<svg xmlns="http://www.w3.org/2000/svg" viewBox="0 0 141.08 77.46"><defs><style>.cls-3{fill:#fff;}</style></defs><g id="Layer_2" data-name="Layer 2"><g id="Layer_5" data-name="Layer 5"><path class="cls-3" d="M13.08,6.54A6.54,6.54,0,1,1,6.54,0,6.54,6.54,0,0,1,13.08,6.54Z"/><path class="cls-3" d="M13.08,22.63a6.54,6.54,0,1,1-6.54-6.54A6.54,6.54,0,0,1,13.08,22.63Z"/><path class="cls-3" d="M29.08,6.54A6.54,6.54,0,1,1,22.54,0,6.54,6.54,0,0,1,29.08,6.54Z"/><path class="cls-3" d="M29.08,22.63a6.54,6.54,0,1,1-6.54-6.54A6.54,6.54,0,0,1,29.08,22.63Z"/><path class="cls-3" d="M45.08,38.73a6.54,6.54,0,1,1-6.54-6.54A6.54,6.54,0,0,1,45.08,38.73Z"/><path class="cls-3" d="M45.08,54.82a6.54,6.54,0,1,1-6.54-6.54A6.54,6.54,0,0,1,45.08,54.82Z"/><path class="cls-3" d="M61.08,22.63a6.54,6.54,0,1,1-6.54-6.54A6.54,6.54,0,0,1,61.08,22.63Z"/><path class="cls-3" d="M61.08,70.92a6.54,6.54,0,1,1-6.54-6.54A6.54,6.54,0,0,1,61.08,70.92Z"/><path class="cls-3" d="M77.08,22.63a6.54,6.54,0,1,1-6.54-6.54A6.54,6.54,0,0,1,77.08,22.63Z"/><path class="cls-3" d="M77.08,38.73a6.54,6.54,0,1,1-6.54-6.54A6.54,6.54,0,0,1,77.08,38.73Z"/><path class="cls-3" d="M77.08,54.82a6.54,6.54,0,1,1-6.54-6.54A6.54,6.54,0,0,1,77.08,54.82Z"/><path class="cls-3" d="M77.08,70.92a6.54,6.54,0,1,1-6.54-6.54A6.54,6.54,0,0,1,77.08,70.92Z"/><path class="cls-3" d="M93.08,22.63a6.54,6.54,0,1,1-6.54-6.54A6.54,6.54,0,0,1,93.08,22.63Z"/><path class="cls-3" d="M93.08,70.92a6.54,6.54,0,1,1-6.54-6.54A6.54,6.54,0,0,1,93.08,70.92Z"/><path class="cls-3" d="M109.08,38.73a6.54,6.54,0,1,1-6.54-6.54A6.54,6.54,0,0,1,109.08,38.73Z"/><path class="cls-3" d="M109.08,54.82a6.54,6.54,0,1,1-6.54-6.54A6.54,6.54,0,0,1,109.08,54.82Z"/><path class="cls-3" d="M125.08,6.54A6.54,6.54,0,1,1,118.54,0,6.54,6.54,0,0,1,125.08,6.54Z"/><path class="cls-3" d="M125.08,22.63a6.54,6.54,0,1,1-6.54-6.54A6.54,6.54,0,0,1,125.08,22.63Z"/><path class="cls-3" d="M141.08,6.54A6.54,6.54,0,1,1,134.54,0,6.54,6.54,0,0,1,141.08,6.54Z"/><path class="cls-3" d="M141.08,22.63a6.54,6.54,0,1,1-6.54-6.54A6.54,6.54,0,0,1,141.08,22.63Z"/></g></g></svg>